<mxfile host="app.diagrams.net" modified="2023-11-16T18:56:42.492Z" agent="Mozilla/5.0 (Windows NT 10.0; Win64; x64; rv:109.0) Gecko/20100101 Firefox/119.0" etag="Uou_jVs9DVnfVFeEqA6I" version="22.1.2" type="device">
  <diagram name="Pagina-1" id="GgXEJ81RuVTFlW8kEIqq">
    <mxGraphModel dx="819" dy="426" grid="1" gridSize="10" guides="1" tooltips="1" connect="1" arrows="1" fold="1" page="1" pageScale="1" pageWidth="827" pageHeight="1169" math="0" shadow="0">
      <root>
        <mxCell id="0" />
        <mxCell id="1" parent="0" />
        <mxCell id="02vexZp_IqWnZ5WZXqgF-1" value="" style="ellipse;whiteSpace=wrap;html=1;aspect=fixed;" vertex="1" parent="1">
          <mxGeometry x="240" y="360" width="40" height="40" as="geometry" />
        </mxCell>
        <mxCell id="02vexZp_IqWnZ5WZXqgF-2" value="S&lt;sub style=&quot;font-size: 20px;&quot;&gt;i&lt;/sub&gt;" style="ellipse;whiteSpace=wrap;html=1;aspect=fixed;fontSize=20;fontFamily=Times New Roman;" vertex="1" parent="1">
          <mxGeometry x="320" y="320" width="40" height="40" as="geometry" />
        </mxCell>
        <mxCell id="02vexZp_IqWnZ5WZXqgF-3" value="S&lt;sub style=&quot;font-size: 20px;&quot;&gt;k&lt;/sub&gt;" style="ellipse;whiteSpace=wrap;html=1;aspect=fixed;fontSize=20;fontFamily=Times New Roman;" vertex="1" parent="1">
          <mxGeometry x="360" y="400" width="40" height="40" as="geometry" />
        </mxCell>
        <mxCell id="02vexZp_IqWnZ5WZXqgF-4" value="S&lt;sub style=&quot;font-size: 20px;&quot;&gt;j&lt;/sub&gt;" style="ellipse;whiteSpace=wrap;html=1;aspect=fixed;fontSize=20;fontFamily=Times New Roman;" vertex="1" parent="1">
          <mxGeometry x="400" y="320" width="40" height="40" as="geometry" />
        </mxCell>
        <mxCell id="02vexZp_IqWnZ5WZXqgF-5" value="" style="ellipse;whiteSpace=wrap;html=1;aspect=fixed;" vertex="1" parent="1">
          <mxGeometry x="480" y="360" width="40" height="40" as="geometry" />
        </mxCell>
        <mxCell id="02vexZp_IqWnZ5WZXqgF-6" value="" style="endArrow=classic;html=1;rounded=0;exitX=1;exitY=0;exitDx=0;exitDy=0;entryX=0;entryY=0.5;entryDx=0;entryDy=0;" edge="1" parent="1" source="02vexZp_IqWnZ5WZXqgF-1" target="02vexZp_IqWnZ5WZXqgF-2">
          <mxGeometry width="50" height="50" relative="1" as="geometry">
            <mxPoint x="315" y="420" as="sourcePoint" />
            <mxPoint x="365" y="370" as="targetPoint" />
          </mxGeometry>
        </mxCell>
        <mxCell id="02vexZp_IqWnZ5WZXqgF-7" value="" style="endArrow=classic;html=1;rounded=0;exitX=1;exitY=1;exitDx=0;exitDy=0;entryX=0;entryY=0.5;entryDx=0;entryDy=0;" edge="1" parent="1" source="02vexZp_IqWnZ5WZXqgF-1" target="02vexZp_IqWnZ5WZXqgF-3">
          <mxGeometry width="50" height="50" relative="1" as="geometry">
            <mxPoint x="284" y="376" as="sourcePoint" />
            <mxPoint x="330" y="350" as="targetPoint" />
          </mxGeometry>
        </mxCell>
        <mxCell id="02vexZp_IqWnZ5WZXqgF-8" value="" style="endArrow=classic;html=1;rounded=0;exitX=1;exitY=0.5;exitDx=0;exitDy=0;entryX=0;entryY=1;entryDx=0;entryDy=0;strokeWidth=1;" edge="1" parent="1" source="02vexZp_IqWnZ5WZXqgF-3" target="02vexZp_IqWnZ5WZXqgF-5">
          <mxGeometry width="50" height="50" relative="1" as="geometry">
            <mxPoint x="284" y="404" as="sourcePoint" />
            <mxPoint x="370" y="430" as="targetPoint" />
          </mxGeometry>
        </mxCell>
        <mxCell id="02vexZp_IqWnZ5WZXqgF-12" value="&lt;font face=&quot;Verdana&quot; style=&quot;font-size: 20px;&quot;&gt;Â¬&lt;/font&gt;&lt;font face=&quot;Times New Roman&quot; style=&quot;font-size: 20px;&quot;&gt;c&lt;/font&gt;" style="edgeLabel;html=1;align=center;verticalAlign=middle;resizable=0;points=[];" vertex="1" connectable="0" parent="02vexZp_IqWnZ5WZXqgF-8">
          <mxGeometry x="-0.0557" y="-2" relative="1" as="geometry">
            <mxPoint x="-8" y="-17" as="offset" />
          </mxGeometry>
        </mxCell>
        <mxCell id="02vexZp_IqWnZ5WZXqgF-9" value="" style="endArrow=classic;html=1;rounded=0;exitX=1;exitY=0.5;exitDx=0;exitDy=0;entryX=0;entryY=0;entryDx=0;entryDy=0;" edge="1" parent="1" source="02vexZp_IqWnZ5WZXqgF-4" target="02vexZp_IqWnZ5WZXqgF-5">
          <mxGeometry width="50" height="50" relative="1" as="geometry">
            <mxPoint x="410" y="430" as="sourcePoint" />
            <mxPoint x="496" y="404" as="targetPoint" />
          </mxGeometry>
        </mxCell>
        <mxCell id="02vexZp_IqWnZ5WZXqgF-10" value="" style="endArrow=classic;html=1;rounded=0;exitX=1;exitY=0.5;exitDx=0;exitDy=0;entryX=0;entryY=0.5;entryDx=0;entryDy=0;strokeWidth=3;" edge="1" parent="1" source="02vexZp_IqWnZ5WZXqgF-2" target="02vexZp_IqWnZ5WZXqgF-4">
          <mxGeometry width="50" height="50" relative="1" as="geometry">
            <mxPoint x="450" y="350" as="sourcePoint" />
            <mxPoint x="496" y="376" as="targetPoint" />
          </mxGeometry>
        </mxCell>
        <mxCell id="02vexZp_IqWnZ5WZXqgF-11" value="&lt;font style=&quot;font-size: 20px;&quot; face=&quot;Times New Roman&quot;&gt;c&lt;/font&gt;" style="edgeLabel;html=1;align=center;verticalAlign=middle;resizable=0;points=[];" vertex="1" connectable="0" parent="02vexZp_IqWnZ5WZXqgF-10">
          <mxGeometry x="0.1833" relative="1" as="geometry">
            <mxPoint x="-10" y="-16" as="offset" />
          </mxGeometry>
        </mxCell>
      </root>
    </mxGraphModel>
  </diagram>
</mxfile>
